<svg width="256" height="256" viewBox="0 0 256 256" fill="none" xmlns="http://www.w3.org/2000/svg">
<rect width="256" height="256" rx="25.6" fill="#111827"/>
<path d="M95.5455 176.409C106.5 176.409 113.045 171.273 116.045 165.409H116.591V175H132.409V128.273C132.409 109.818 117.364 104.273 104.045 104.273C89.3636 104.273 78.0909 110.818 74.4545 123.545L89.8182 125.727C91.4545 120.955 96.0909 116.864 104.136 116.864C111.773 116.864 115.955 120.773 115.955 127.636V127.909C115.955 132.636 111 132.864 98.6818 134.182C85.1364 135.636 72.1818 139.682 72.1818 155.409C72.1818 169.136 82.2273 176.409 95.5455 176.409ZM99.8182 164.318C92.9545 164.318 88.0455 161.182 88.0455 155.136C88.0455 148.818 93.5455 146.182 100.909 145.136C105.227 144.545 113.864 143.455 116 141.727V149.955C116 157.727 109.727 164.318 99.8182 164.318ZM183.818 105.182H170.045V88.4545H153.591V105.182H143.682V117.909H153.591V156.727C153.5 169.864 163.045 176.318 175.409 175.955C180.091 175.818 183.318 174.909 185.091 174.318L182.318 161.455C181.409 161.682 179.545 162.091 177.5 162.091C173.364 162.091 170.045 160.636 170.045 154V117.909H183.818V105.182Z" fill="#F9FAFB"/>
</svg>
