<svg height="524" viewBox="0 0 338 512" fill="none" xmlns="http://www.w3.org/2000/svg">
<path opacity="0.4" d="M192.488 146.565C188.341 144.174 185.366 144.125 183.561 146.37C181.707 148.615 180.829 152.421 180.829 157.74V186.529C180.829 191.995 180.341 196.533 179.317 200.143C178.293 203.901 176.585 206.536 174.244 208.097C171.951 209.708 168.829 210.098 164.878 209.366C161.024 208.683 156.195 206.633 150.439 203.315L147.707 201.705V179.015L151.171 181.015C155.317 183.406 158.049 183.699 159.415 181.991C160.878 180.283 161.61 176.77 161.61 171.451V146.077C161.61 139.441 162.244 134.22 163.561 130.414C164.829 126.559 167.415 124.119 171.268 123.045C167.415 117.531 164.829 112.066 163.561 106.748C162.293 101.429 161.658 95.4756 161.658 88.8393V63.4653C161.658 58.1465 160.927 53.7549 159.463 50.3879C158.097 47.0698 155.317 44.1908 151.219 41.7998L147.756 39.7992V17.1089L150.488 18.7192C156.244 22.0373 161.073 25.5995 164.927 29.3568C168.878 33.1629 172 37.1642 174.293 41.4582C176.683 45.7523 178.39 50.3391 179.366 55.2676C180.39 60.0496 180.878 65.1732 180.878 70.6384V99.4281C180.878 104.747 181.805 109.627 183.61 113.969C185.463 118.312 188.439 121.728 192.537 124.07L192.488 146.565Z" fill="url(#paint0_linear)"/>
<path opacity="0.4" d="M87.9997 63.1725C92.146 65.5635 95.1216 65.6123 96.9265 63.3677C98.7802 61.123 99.6582 57.3169 99.6582 51.9981V23.2084C99.6582 17.7432 100.146 13.2052 101.17 9.59425C102.195 5.83694 103.853 3.20195 106.146 1.59167C108.536 0.0301927 111.658 -0.360177 115.512 0.32297C119.463 1.05491 124.341 3.10435 130.097 6.47129L132.829 8.08156V30.7718L129.366 28.7712C125.219 26.3801 122.439 26.0386 120.975 27.7464C119.609 29.5031 118.927 33.0164 118.927 38.384V63.758C118.927 70.3455 118.292 75.6155 116.975 79.4216C115.707 83.2765 113.122 85.7163 109.268 86.7898C113.122 92.3038 115.707 97.769 116.975 103.088C118.244 108.407 118.878 114.36 118.878 120.996V146.37C118.878 151.689 119.561 156.032 120.927 159.399C122.39 162.766 125.17 165.693 129.317 168.036L132.78 170.036V192.726L130.048 191.116C124.292 187.798 119.414 184.187 115.463 180.43C111.609 176.672 108.487 172.671 106.097 168.328C103.805 164.083 102.146 159.496 101.17 154.617C100.146 149.835 99.6582 144.711 99.6582 139.246V110.456C99.6582 105.137 98.7314 100.258 96.9265 95.9147C95.0729 91.5719 92.0973 88.1561 87.9997 85.8139V63.1725Z" fill="url(#paint1_linear)"/>
<path opacity="0.15" d="M206.585 6.2762L309.561 65.7588L309.512 312.716L206.536 253.283L206.585 6.2762Z" fill="url(#paint2_linear)"/>
<path d="M187.219 38.628L269.171 85.9115V108.602L187.219 61.3182V38.628Z" fill="#6366F1"/>
<path opacity="0.2" d="M220 143.686L297.659 188.53V257.186L220 212.343V143.686Z" fill="url(#paint3_linear)"/>
<path opacity="0.15" d="M219.219 91.0351L298.048 136.562V144.32L219.219 98.7937V91.0351Z" fill="white"/>
<path opacity="0.15" d="M219.219 106.65L287.366 145.98V153.738L219.219 114.408V106.65Z" fill="white"/>
<path opacity="0.15" d="M219.219 122.069L277.073 155.446V163.205L219.219 129.828V122.069Z" fill="white"/>
<path opacity="0.2" d="M206.585 6.2762L309.561 65.7588V98.8426L206.536 39.4088L206.585 6.2762Z" fill="url(#paint4_linear)"/>
<path opacity="0.2" d="M232.292 37.8961C232.292 42.9221 229.366 45.2643 225.756 43.1661C222.146 41.0678 219.219 35.3587 219.219 30.3327C219.219 25.3066 222.146 22.9644 225.756 25.0627C229.366 27.1609 232.292 32.9189 232.292 37.8961Z" fill="white"/>
<path opacity="0.15" d="M21.0244 81.9103L338 264.896L337.951 512L20.9756 329.014L21.0244 81.9103Z" fill="url(#paint5_linear)"/>
<path d="M0 142.808L81.9025 190.091V212.782L0 165.547V142.808Z" fill="#4338CA"/>
<path opacity="0.15" d="M42.39 205.17L224.244 310.179V317.938L42.39 212.928V205.17Z" fill="white"/>
<path opacity="0.15" d="M42.39 220.784L199.268 311.35V319.109L42.39 228.543V220.784Z" fill="white"/>
<path opacity="0.15" d="M42.39 236.253L175.902 313.351V321.109L42.39 244.011V236.253Z" fill="white"/>
<path opacity="0.2" d="M165.122 334.626L325.024 426.948V495.604L165.122 403.282V334.626Z" fill="url(#paint6_linear)"/>
<path opacity="0.15" d="M177.171 355.169L201.268 369.076V391.766L177.171 377.859V355.169Z" fill="white"/>
<path opacity="0.15" d="M206.683 373.321L230.781 387.228V409.918L206.683 396.011V373.321Z" fill="white"/>
<path opacity="0.15" d="M236.341 390.156L260.439 404.063V426.753L236.341 412.846V390.156Z" fill="white"/>
<path opacity="0.15" d="M266 408.064L290.097 421.971V444.661L266 430.754V408.064Z" fill="white"/>
<path opacity="0.2" d="M12.6339 243.963L145.756 320.817V389.473L12.6339 312.57V243.963Z" fill="url(#paint7_linear)"/>
<path opacity="0.15" d="M26.0485 269.288L131.805 330.332V338.09L26.0485 277.046V269.288Z" fill="white"/>
<path opacity="0.15" d="M26.0485 284.902L110.731 333.796V341.555L26.0485 292.612V284.902Z" fill="white"/>
<path opacity="0.2" d="M21.0242 81.9103L337.561 264.701V298.175L21.0242 115.433V81.9103Z" fill="url(#paint8_linear)"/>
<path opacity="0.2" d="M55.5122 118.556C55.5122 123.582 52.5854 125.925 48.9756 123.826C45.3659 121.728 42.439 116.019 42.439 110.993C42.439 105.967 45.3659 103.625 48.9756 105.723C52.5854 107.821 55.5122 113.579 55.5122 118.556Z" fill="white"/>
<defs>
<linearGradient id="paint0_linear" x1="220.567" y1="10.2607" x2="140.634" y2="148.784" gradientUnits="userSpaceOnUse">
<stop stop-color="white"/>
<stop offset="0.903" stop-color="white" stop-opacity="0"/>
</linearGradient>
<linearGradient id="paint1_linear" x1="174.442" y1="0.86807" x2="94.5006" y2="139.374" gradientUnits="userSpaceOnUse">
<stop stop-color="white"/>
<stop offset="0.903" stop-color="white" stop-opacity="0"/>
</linearGradient>
<linearGradient id="paint2_linear" x1="311.497" y1="66.8808" x2="212.984" y2="237.501" gradientUnits="userSpaceOnUse">
<stop stop-color="white"/>
<stop offset="1" stop-color="white" stop-opacity="0"/>
</linearGradient>
<linearGradient id="paint3_linear" x1="273.699" y1="174.657" x2="246.319" y2="222.077" gradientUnits="userSpaceOnUse">
<stop stop-color="white"/>
<stop offset="1" stop-color="white" stop-opacity="0"/>
</linearGradient>
<linearGradient id="paint4_linear" x1="241.892" y1="6.78929" x2="273.307" y2="95.7018" gradientUnits="userSpaceOnUse">
<stop stop-color="white"/>
<stop offset="1" stop-color="white" stop-opacity="0"/>
</linearGradient>
<linearGradient id="paint5_linear" x1="232.967" y1="204.258" x2="180.787" y2="294.654" gradientUnits="userSpaceOnUse">
<stop stop-color="white"/>
<stop offset="1" stop-color="white" stop-opacity="0"/>
</linearGradient>
<linearGradient id="paint6_linear" x1="259.948" y1="389.365" x2="232.568" y2="436.786" gradientUnits="userSpaceOnUse">
<stop stop-color="white"/>
<stop offset="1" stop-color="white" stop-opacity="0"/>
</linearGradient>
<linearGradient id="paint7_linear" x1="94.0474" y1="290.946" x2="66.6673" y2="338.366" gradientUnits="userSpaceOnUse">
<stop stop-color="white"/>
<stop offset="1" stop-color="white" stop-opacity="0"/>
</linearGradient>
<linearGradient id="paint8_linear" x1="99.5639" y1="54.9389" x2="219.813" y2="258.569" gradientUnits="userSpaceOnUse">
<stop stop-color="white"/>
<stop offset="1" stop-color="white" stop-opacity="0"/>
</linearGradient>
</defs>
</svg>
